<svg width="600" height="400" xmlns="http://www.w3.org/2000/svg">
  <rect width="600" height="400" fill="#1a1a1a"/>
  <rect x="20" y="20" width="560" height="40" rx="6" fill="#252525"/>
  <circle cx="40" cy="40" r="6" fill="#ff5f57"/>
  <circle cx="60" cy="40" r="6" fill="#febc2e"/>
  <circle cx="80" cy="40" r="6" fill="#28c840"/>
  <rect x="20" y="80" width="160" height="300" rx="6" fill="#1f1f1f"/>
  <rect x="200" y="80" width="380" height="140" rx="6" fill="#1f1f1f"/>
  <rect x="200" y="240" width="180" height="140" rx="6" fill="#1f1f1f"/>
  <rect x="400" y="240" width="180" height="140" rx="6" fill="#1f1f1f"/>
  <rect x="40" y="100" width="120" height="10" rx="3" fill="#333"/>
  <rect x="40" y="120" width="100" height="8" rx="3" fill="#2a2a2a"/>
  <rect x="40" y="140" width="110" height="8" rx="3" fill="#2a2a2a"/>
  <rect x="40" y="160" width="90" height="8" rx="3" fill="#2a2a2a"/>
  <rect x="220" y="100" width="200" height="14" rx="3" fill="#333"/>
  <rect x="220" y="124" width="340" height="8" rx="3" fill="#2a2a2a"/>
  <rect x="220" y="142" width="300" height="8" rx="3" fill="#2a2a2a"/>
  <rect x="220" y="176" width="80" height="28" rx="6" fill="#1D9E75"/>
  <text x="260" y="195" font-family="sans-serif" font-size="12" fill="white" text-anchor="middle">Demo</text>
</svg>
